<svg width="20" height="21" viewBox="0 0 20 21" fill="none" xmlns="http://www.w3.org/2000/svg">
<path d="M10 0.723328C7.28154 0.723328 6.94274 0.736397 5.87886 0.781205C4.8106 0.83348 4.08801 0.998399 3.45043 1.24484C2.78314 1.49565 2.17881 1.88834 1.67958 2.39553C1.16874 2.89141 0.774095 3.49341 0.523815 4.1586C0.276285 4.79338 0.110639 5.5128 0.0581323 6.57636C0.0100013 7.6362 0 7.97288 0 10.6794C0 13.3859 0.0131266 13.7232 0.0581323 14.7824C0.110639 15.8429 0.276285 16.5654 0.523815 17.2002C0.775735 17.8646 1.17016 18.4662 1.67958 18.9633C2.17765 19.4719 2.78231 19.8648 3.45043 20.114C4.08801 20.3573 4.81373 20.5253 5.87886 20.5776C6.94337 20.6255 7.28154 20.6355 10 20.6355C12.7185 20.6355 13.0573 20.6224 14.1211 20.5776C15.1863 20.5253 15.912 20.3567 16.5496 20.114C17.2169 19.8631 17.8212 19.4705 18.3204 18.9633C18.8319 18.4679 19.2267 17.8658 19.4762 17.2002C19.7206 16.5654 19.8894 15.8429 19.9419 14.7824C19.99 13.7226 20 13.3859 20 10.6794C20 7.97288 19.9869 7.63557 19.9419 6.57636C19.8894 5.51591 19.72 4.78965 19.4762 4.1586C19.2243 3.49424 18.8298 2.89257 18.3204 2.39553C17.8229 1.88627 17.2181 1.49326 16.5496 1.24484C15.912 0.998399 15.1863 0.83348 14.1211 0.781205C13.0566 0.733285 12.7185 0.723328 10 0.723328ZM10 2.51565C12.6697 2.51565 12.9885 2.52871 14.0436 2.57352C15.0169 2.61895 15.5469 2.78076 15.8989 2.91767C16.3339 3.07756 16.7277 3.33205 17.0515 3.6626C17.383 3.98362 17.6376 4.37477 17.7966 4.80707C17.9341 5.15745 18.0966 5.68518 18.1423 6.65416C18.1873 7.70465 18.2004 8.02266 18.2004 10.68C18.2004 13.3374 18.1873 13.6554 18.1385 14.7059C18.086 15.6749 17.9235 16.2026 17.7866 16.553C17.5972 17.0203 17.3859 17.3471 17.0371 17.7006C16.7122 18.029 16.3187 18.2823 15.8845 18.4424C15.5369 18.5793 14.9994 18.7411 14.0224 18.7865C12.9616 18.8313 12.6491 18.8444 9.9725 18.8444C7.29591 18.8444 6.984 18.8313 5.92199 18.7828C4.94874 18.7305 4.4118 18.5687 4.05988 18.4324C3.58482 18.2439 3.25916 18.0335 2.91036 17.6862C2.55844 17.3359 2.33467 17.0023 2.16215 16.5387C2.02213 16.1926 1.86211 15.6574 1.81023 14.6847C1.7746 13.6411 1.75772 13.3175 1.75772 10.6651C1.75772 8.01395 1.7746 7.68972 1.81023 6.633C1.86211 5.66029 2.02213 5.12633 2.16215 4.77907C2.33467 4.30547 2.55907 3.98186 2.91036 3.63149C3.25853 3.28485 3.58482 3.06081 4.05988 2.88531C4.4118 2.74902 4.93562 2.58721 5.91261 2.53867C6.97337 2.50071 7.28591 2.48702 9.95875 2.48702L10 2.51565ZM10 5.56943C9.32576 5.56918 8.65807 5.70122 8.0351 5.958C7.41213 6.21477 6.84609 6.59125 6.36933 7.06592C5.89257 7.54059 5.51442 8.10415 5.25652 8.72438C4.99861 9.34461 4.86599 10.0094 4.86623 10.6806C4.86599 11.3519 4.99861 12.0167 5.25652 12.6369C5.51442 13.2571 5.89257 13.8207 6.36933 14.2954C6.84609 14.77 7.41213 15.1465 8.0351 15.4033C8.65807 15.6601 9.32576 15.7921 10 15.7919C10.6742 15.7921 11.3419 15.6601 11.9649 15.4033C12.5879 15.1465 13.1539 14.77 13.6307 14.2954C14.1074 13.8207 14.4856 13.2571 14.7435 12.6369C15.0014 12.0167 15.134 11.3519 15.1338 10.6806C15.134 10.0094 15.0014 9.34461 14.7435 8.72438C14.4856 8.10415 14.1074 7.54059 13.6307 7.06592C13.1539 6.59125 12.5879 6.21477 11.9649 5.958C11.3419 5.70122 10.6742 5.56918 10 5.56943ZM10 13.9995C8.15727 13.9995 6.66646 12.5153 6.66646 10.6806C6.66646 8.84601 8.15727 7.36175 10 7.36175C11.8427 7.36175 13.3335 8.84601 13.3335 10.6806C13.3335 12.5153 11.8427 13.9995 10 13.9995ZM16.5408 5.3653C16.5405 5.68249 16.4137 5.98656 16.1883 6.21073C15.9629 6.43489 15.6574 6.56081 15.3388 6.56081C15.1813 6.56081 15.0253 6.52992 14.8798 6.4699C14.7342 6.40988 14.602 6.32191 14.4906 6.21102C14.3792 6.10012 14.2909 5.96847 14.2306 5.82357C14.1703 5.67868 14.1393 5.52338 14.1393 5.36655C14.1393 5.20972 14.1703 5.05442 14.2306 4.90953C14.2909 4.76463 14.3792 4.63298 14.4906 4.52208C14.602 4.41119 14.7342 4.32322 14.8798 4.2632C15.0253 4.20318 15.1813 4.17229 15.3388 4.17229C15.9995 4.17229 16.5408 4.7075 16.5408 5.3653Z" fill="white"/>
</svg>
