<svg width="23" height="23" viewBox="0 0 23 23" fill="none" xmlns="http://www.w3.org/2000/svg">
<path d="M11.5 13.4167C13.6141 13.4167 15.3333 11.6974 15.3333 9.58333C15.3333 7.46925 13.6141 5.75 11.5 5.75C9.38591 5.75 7.66666 7.46925 7.66666 9.58333C7.66666 11.6974 9.38591 13.4167 11.5 13.4167ZM11.5 7.66667C12.557 7.66667 13.4167 8.52629 13.4167 9.58333C13.4167 10.6404 12.557 11.5 11.5 11.5C10.443 11.5 9.58333 10.6404 9.58333 9.58333C9.58333 8.52629 10.443 7.66667 11.5 7.66667Z" fill="#2F6991"/>
<path d="M10.9442 20.9051C11.1064 21.0209 11.3007 21.0832 11.5 21.0832C11.6993 21.0832 11.8936 21.0209 12.0558 20.9051C12.3472 20.699 19.1945 15.755 19.1667 9.58332C19.1667 5.35612 15.7272 1.91666 11.5 1.91666C7.27279 1.91666 3.83334 5.35611 3.83334 9.57853C3.80554 15.755 10.6528 20.699 10.9442 20.9051ZM11.5 3.83332C14.6711 3.83332 17.25 6.4122 17.25 9.58812C17.2701 13.8412 13.0448 17.6602 11.5 18.9127C9.95613 17.6592 5.72988 13.8393 5.75 9.58332C5.75 6.4122 8.32888 3.83332 11.5 3.83332Z" fill="#2F6991"/>
</svg>
