<svg width="18" height="16" viewBox="0 0 18 16" fill="none" xmlns="http://www.w3.org/2000/svg">
<path d="M17.067 0.479369C16.8947 0.330671 16.6851 0.231924 16.4608 0.193821C16.2364 0.155717 16.006 0.179708 15.7943 0.263197L1.37579 5.92765C1.12451 6.02641 0.911958 6.20386 0.769934 6.43348C0.627909 6.66309 0.564046 6.93252 0.587896 7.20145C0.611746 7.47038 0.722029 7.72437 0.902245 7.9254C1.08246 8.12644 1.32292 8.26372 1.58766 8.31671L5.25008 9.04937V13.6238C5.24986 13.8711 5.32304 14.113 5.46035 14.3187C5.59766 14.5244 5.79293 14.6847 6.02142 14.7793C6.24991 14.874 6.50134 14.8987 6.74389 14.8503C6.98644 14.802 7.20918 14.6828 7.38391 14.5077L9.41078 12.4809L12.487 15.188C12.7135 15.3891 13.0058 15.5004 13.3087 15.5008C13.4403 15.5006 13.5712 15.4799 13.6964 15.4393C13.903 15.3738 14.0888 15.2552 14.2353 15.0955C14.3818 14.9357 14.4838 14.7403 14.5312 14.5288L17.4698 1.70601C17.521 1.48427 17.5105 1.25275 17.4395 1.03654C17.3685 0.820325 17.2396 0.62767 17.067 0.479447V0.479369ZM5.73024 7.87054L1.83297 7.09109L12.7456 2.8039L5.73024 7.87054ZM6.50008 13.6232V9.91945L8.47039 11.6533L6.50008 13.6232ZM13.3127 14.2495L6.87586 8.58499L16.145 1.8907L13.3127 14.2495Z" fill="white"/>
</svg>
