<svg width="22" height="19" viewBox="0 0 22 19" fill="none" xmlns="http://www.w3.org/2000/svg">
<path d="M20.6802 0.97512C20.4735 0.796684 20.222 0.678187 19.9528 0.632463C19.6836 0.586738 19.407 0.615528 19.153 0.715714L1.85081 7.51306C1.54927 7.63156 1.29422 7.84451 1.12379 8.12005C0.953357 8.39559 0.87672 8.7189 0.905341 9.04162C0.933961 9.36434 1.0663 9.66912 1.28256 9.91036C1.49882 10.1516 1.78738 10.3163 2.10506 10.3799L6.49996 11.2591V16.7485C6.4997 17.0452 6.58752 17.3354 6.75229 17.5823C6.91706 17.8291 7.15138 18.0215 7.42557 18.1351C7.69975 18.2486 8.00148 18.2783 8.29253 18.2203C8.58359 18.1623 8.85088 18.0192 9.06056 17.8092L11.4928 15.377L15.1843 18.6254C15.4561 18.8668 15.8068 19.0003 16.1703 19.0008C16.3283 19.0006 16.4853 18.9757 16.6356 18.927C16.8835 18.8484 17.1064 18.7061 17.2822 18.5144C17.458 18.3227 17.5804 18.0883 17.6373 17.8345L21.1636 2.44709C21.225 2.181 21.2124 1.90317 21.1272 1.64372C21.042 1.38427 20.8874 1.15308 20.6802 0.975214V0.97512ZM7.07615 9.84453L2.39943 8.90918L15.4945 3.76456L7.07615 9.84453ZM7.99996 16.7477V12.3032L10.3643 14.3838L7.99996 16.7477ZM16.1752 17.4993L8.4509 10.7019L19.5739 2.66871L16.1752 17.4993Z" fill="#2F6991"/>
</svg>
