<svg width="20" height="21" viewBox="0 0 20 21" fill="none" xmlns="http://www.w3.org/2000/svg">
<path d="M9.47362 0.726142C7.78254 0.745434 4.14687 1.00806 2.11337 2.77112C0.600759 4.18755 0.0726281 6.28169 0.0107275 8.87121C-0.0406368 11.4514 -0.102538 16.2969 4.83963 17.6162V19.6257C4.83963 19.6257 4.80868 20.4298 5.37106 20.5947C6.06382 20.8019 6.45827 20.1833 7.11678 19.5187L8.34492 18.2062C11.7264 18.4719 14.3163 17.8595 14.6147 17.7687C15.3008 17.5614 19.1657 17.0947 19.7972 12.2486C20.4452 7.24382 19.4818 4.09046 17.7426 2.66408H17.7321C17.2072 2.20729 15.098 0.754769 10.3857 0.738588C10.3857 0.738588 10.036 0.716807 9.47362 0.726142ZM9.53157 2.13323C10.0116 2.13012 10.3033 2.14941 10.3033 2.14941C14.292 2.15937 16.1958 3.29388 16.6449 3.67599C18.1094 4.86215 18.8641 7.70496 18.3116 11.8833C17.7867 15.9347 14.6522 16.1911 14.072 16.3659C13.8251 16.4406 11.544 16.9721 8.67023 16.7972C8.67023 16.7972 6.53005 19.238 5.86099 19.8666C5.75497 19.9767 5.63117 20.0091 5.55215 19.9929C5.43888 19.9668 5.40464 19.8342 5.41123 19.6525L5.43164 16.3174C1.24018 15.2221 1.48712 11.0892 1.5319 8.93033C1.58327 6.77147 2.01196 5.00529 3.28817 3.80917C5.00624 2.34109 8.09336 2.14319 9.53025 2.13323H9.53157ZM9.84765 4.29148C9.81316 4.29115 9.77893 4.29728 9.74695 4.30951C9.71497 4.32174 9.68587 4.33983 9.66132 4.36274C9.63678 4.38564 9.61727 4.41292 9.60393 4.44299C9.59059 4.47305 9.58367 4.50532 9.58359 4.53792C9.58359 4.67732 9.70344 4.78748 9.84765 4.78748C10.5006 4.77574 11.1495 4.88628 11.757 5.11272C12.3645 5.33916 12.9185 5.67702 13.3872 6.10682C14.344 6.98493 14.8102 8.16487 14.828 9.70763C14.828 9.84392 14.9446 9.95718 15.0921 9.95718V9.94722C15.1616 9.94739 15.2284 9.92158 15.2778 9.87541C15.3273 9.82925 15.3555 9.76648 15.3561 9.70078C15.3881 8.97461 15.2635 8.24988 14.9899 7.57064C14.7163 6.8914 14.2994 6.27184 13.7645 5.7496C12.7221 4.78685 11.4011 4.29148 9.84765 4.29148ZM6.37661 4.86215C6.19022 4.83642 6.00012 4.87178 5.83794 4.96235H5.82412C5.44762 5.17092 5.10845 5.43453 4.81922 5.74338C4.57886 6.006 4.44847 6.27173 4.41423 6.52751C4.39382 6.67998 4.40764 6.83246 4.45572 6.97808L4.47284 6.98804C4.74349 7.73981 5.09711 8.46296 5.5291 9.14379C6.08556 10.1003 6.77037 10.9849 7.56655 11.7756L7.59026 11.808L7.62779 11.8341L7.6515 11.8603L7.67916 11.8827C8.51892 12.6373 9.45721 13.2875 10.4713 13.8175C11.6303 14.4137 12.3336 14.6956 12.7557 14.8126V14.8188C12.8795 14.8543 12.9921 14.8705 13.1053 14.8705C13.4651 14.8456 13.8056 14.7076 14.0727 14.4784C14.398 14.205 14.6739 13.8832 14.8893 13.5256V13.5194C15.0914 13.1597 15.0229 12.8193 14.7312 12.589C14.147 12.1064 13.5152 11.6777 12.8446 11.3089C12.3955 11.0786 11.9391 11.218 11.7541 11.4514L11.3596 11.9213C11.1574 12.1546 10.79 12.1223 10.79 12.1223L10.7795 12.1285C8.03937 11.467 7.30841 8.84507 7.30841 8.84507C7.30841 8.84507 7.27417 8.48848 7.5277 8.30676L8.02159 7.93087C8.25799 7.74915 8.42262 7.3185 8.16909 6.89344C7.78149 6.25876 7.3289 5.66157 6.81782 5.11047C6.70609 4.98054 6.54934 4.89214 6.37529 4.86091L6.37661 4.86215ZM10.3033 5.60148C9.95368 5.60148 9.95367 6.10059 10.3066 6.10059C10.7414 6.10726 11.1706 6.19484 11.5696 6.35832C11.9685 6.52181 12.3295 6.75799 12.6319 7.05338C12.9077 7.34091 13.1196 7.67782 13.2551 8.04416C13.3906 8.4105 13.447 8.79882 13.4208 9.18611C13.422 9.25166 13.4503 9.31415 13.4996 9.36021C13.549 9.40627 13.6155 9.43224 13.6848 9.43256L13.6954 9.44562C13.7652 9.44514 13.8321 9.41869 13.8815 9.37199C13.9309 9.3253 13.9589 9.2621 13.9594 9.19607C13.9831 8.20718 13.6578 7.37762 13.0197 6.71297C12.3783 6.04832 11.4834 5.67554 10.3409 5.60148H10.3033ZM10.736 6.94323C10.3758 6.93327 10.362 7.44234 10.7189 7.4523C11.5868 7.49462 12.0082 7.90909 12.0636 8.76168C12.0648 8.8264 12.0927 8.8881 12.1415 8.93358C12.1902 8.97906 12.2558 9.0047 12.3243 9.00501H12.3349C12.3701 9.00359 12.4046 8.99555 12.4365 8.98136C12.4684 8.96717 12.497 8.94713 12.5206 8.92239C12.5442 8.89765 12.5624 8.86872 12.574 8.83728C12.5856 8.80584 12.5905 8.77252 12.5884 8.73928C12.5265 7.62779 11.8851 7.00173 10.7465 6.94385L10.736 6.94323Z" fill="white"/>
</svg>
