<svg width="24" height="24" viewBox="0 0 24 24" fill="none" xmlns="http://www.w3.org/2000/svg">
<path d="M11.3683 0.00280319C9.33905 0.0260567 4.97625 0.342605 2.53605 2.46768C0.72091 4.17494 0.0871537 6.69907 0.012873 9.8203C-0.0487642 12.9303 -0.123045 18.7707 5.80756 20.3609V22.783C5.80756 22.783 5.77042 23.7522 6.44527 23.9509C7.27658 24.2007 7.74992 23.4551 8.54014 22.654L10.0139 21.072C14.0717 21.3923 17.1796 20.6542 17.5376 20.5447C18.361 20.2949 22.9988 19.7323 23.7566 13.8912C24.5342 7.85875 23.3781 4.05792 21.2911 2.33866H21.2785C20.6487 1.78807 18.1176 0.0373084 12.4628 0.0178055C12.4628 0.0178055 12.0432 -0.00844852 11.3683 0.00280319ZM11.4379 1.69881C12.0139 1.69506 12.364 1.71831 12.364 1.71831C17.1504 1.73032 19.4349 3.09777 19.9738 3.55834C21.7313 4.98806 22.6369 8.41458 21.9739 13.4508C21.3441 18.3341 17.5826 18.6431 16.8864 18.8539C16.5901 18.9439 13.8528 19.5845 10.4043 19.3738C10.4043 19.3738 7.83605 22.3157 7.03319 23.0733C6.90596 23.2061 6.7574 23.2451 6.66258 23.2256C6.52666 23.1941 6.48557 23.0343 6.49347 22.8153L6.51797 18.7954C1.48821 17.4752 1.78455 12.4937 1.83828 9.89156C1.89992 7.28941 2.41435 5.16059 3.9458 3.71887C6.00748 1.94935 9.71204 1.71081 11.4363 1.69881H11.4379ZM11.8172 4.30021C11.7758 4.29981 11.7347 4.3072 11.6963 4.32194C11.658 4.33668 11.623 4.35848 11.5936 4.3861C11.5641 4.41371 11.5407 4.44658 11.5247 4.48282C11.5087 4.51906 11.5004 4.55795 11.5003 4.59725C11.5003 4.76528 11.6441 4.89805 11.8172 4.89805C12.6007 4.8839 13.3794 5.01714 14.1084 5.29008C14.8374 5.56301 15.5022 5.97025 16.0646 6.48829C17.2128 7.5467 17.7723 8.96892 17.7936 10.8285C17.7936 10.9927 17.9335 11.1292 18.1105 11.1292V11.1172C18.1939 11.1174 18.274 11.0863 18.3334 11.0307C18.3928 10.975 18.4265 10.8994 18.4274 10.8202C18.4657 9.94493 18.3162 9.07139 17.9879 8.25268C17.6595 7.43397 17.1593 6.68719 16.5174 6.05772C15.2665 4.8973 13.6813 4.30021 11.8172 4.30021ZM7.65193 4.98806C7.42826 4.95704 7.20014 4.99966 7.00553 5.10883H6.98894C6.53714 5.36022 6.13014 5.67796 5.78306 6.05022C5.49463 6.36677 5.33817 6.68707 5.29708 6.99537C5.27258 7.17914 5.28917 7.36292 5.34686 7.53845L5.36741 7.55045C5.69219 8.45659 6.11654 9.32822 6.63492 10.1488C7.30267 11.3017 8.12445 12.368 9.07986 13.3211L9.10831 13.3601L9.15335 13.3916L9.1818 13.4231L9.21499 13.4501C10.2227 14.3597 11.3487 15.1434 12.5655 15.7822C13.9563 16.5008 14.8003 16.8406 15.3068 16.9816V16.9891C15.4554 17.0319 15.5905 17.0514 15.7264 17.0514C16.1581 17.0214 16.5668 16.855 16.8872 16.5788C17.2776 16.2493 17.6086 15.8614 17.8671 15.4304V15.4229C18.1097 14.9893 18.0275 14.579 17.6775 14.3015C16.9764 13.7198 16.2183 13.2031 15.4135 12.7585C14.8745 12.481 14.3269 12.649 14.1049 12.9303L13.6315 13.4966C13.3889 13.7779 12.948 13.7389 12.948 13.7389L12.9353 13.7464C9.64724 12.949 8.77009 9.78879 8.77009 9.78879C8.77009 9.78879 8.729 9.35898 9.03324 9.13994L9.6259 8.68687C9.90959 8.46784 10.1071 7.94876 9.80291 7.43643C9.33779 6.67143 8.79467 5.95162 8.18138 5.28736C8.0473 5.13076 7.85921 5.02421 7.65035 4.98656L7.65193 4.98806ZM12.364 5.8792C11.9444 5.8792 11.9444 6.48079 12.368 6.48079C12.8897 6.48882 13.4047 6.59438 13.8835 6.79144C14.3623 6.98849 14.7954 7.27317 15.1582 7.62921C15.4892 7.97577 15.7435 8.38186 15.9061 8.82343C16.0687 9.26499 16.1363 9.73304 16.1049 10.1999C16.1064 10.2789 16.1403 10.3542 16.1996 10.4097C16.2588 10.4652 16.3386 10.4965 16.4218 10.4969L16.4344 10.5127C16.5183 10.5121 16.5985 10.4802 16.6578 10.4239C16.7171 10.3676 16.7507 10.2914 16.7513 10.2119C16.7798 9.01992 16.3894 8.02002 15.6237 7.2189C14.854 6.41778 13.7801 5.96846 12.4091 5.8792H12.364ZM12.8832 7.49644C12.4509 7.48444 12.4343 8.09803 12.8626 8.11004C13.9042 8.16104 14.4099 8.66062 14.4763 9.68828C14.4777 9.76628 14.5113 9.84065 14.5698 9.89547C14.6282 9.95029 14.707 9.98119 14.7892 9.98157H14.8018C14.8441 9.97985 14.8856 9.97016 14.9238 9.95306C14.9621 9.93596 14.9964 9.9118 15.0247 9.88198C15.053 9.85216 15.0748 9.81729 15.0888 9.7794C15.1028 9.7415 15.1086 9.70134 15.1061 9.66127C15.0318 8.32157 14.2621 7.56695 12.8958 7.49719L12.8832 7.49644Z" fill="#2F6991"/>
</svg>
